# xmcd
#
# Track frame offsets:
#	150
#	15450
#	32100
#	51165
#	68090
#	84632
#	102075
#	120605
#	140737
#	163340
#	183632
#	200090
#	218945
#	234385
#	248650
#
# Disc length: 3501 seconds
#
# Revision: 1
# Processed by: cddbd v1.5.2PL0 Copyright (c) Steve Scherf et al.
# Submitted via: audiograbber 1.83.01
#
DISCID=d80dab0f
DTITLE=Music Maestro - MM6017
DYEAR=1900
DGENRE=
TTITLE0=Boot Scootin Boogie
TTITLE1=A Picture Of Me
TTITLE2=We Shall Be Free
TTITLE3=Shake The Sugar
TTITLE4=Sure Love
TTITLE5=For My Broken Heart
TTITLE6=Only The Wind
TTITLE7=Shes In Love With The Boy
TTITLE8=Fancy
TTITLE9=Some Gave All
TTITLE10=Jealous Bone
TTITLE11=I Saw The Light
TTITLE12=In This Life
TTITLE13=Next Thing Smoking
TTITLE14=Wrong Side Of Memphis
EXTD=
EXTT0=
EXTT1=
EXTT2=
EXTT3=
EXTT4=
EXTT5=
EXTT6=
EXTT7=
EXTT8=
EXTT9=
EXTT10=
EXTT11=
EXTT12=
EXTT13=
EXTT14=
PLAYORDER=
